<svg xmlns="http://www.w3.org/2000/svg" viewBox="0 0 160 160">
  <rect width="160" height="160" rx="36" fill="#0A0A0A"/>
  <g transform="translate(35,22) scale(0.9)">
    <path d="M15.86 12.21 L14.78 13.22 L13.76 14.21 L12.83 15.16 L11.96 16.09 L11.16 17.00 L10.44 17.87 L9.79 18.72 L9.21 19.54 L8.71 20.34 L8.23 21.14 L7.78 21.96 L7.35 22.78 L6.95 23.61 L6.58 24.45 L6.24 25.30 L5.92 26.16 L5.64 27.02 L5.37 29.02 L5.14 32.14 L4.93 36.40 L4.75 41.78 L4.60 48.29 L4.47 55.93 L4.37 64.70 L4.30 74.60 L4.17 83.35 L3.99 90.93 L3.76 97.36 L3.47 102.64 L3.13 106.76 L2.73 109.72 L2.28 111.52 L1.77 112.17 L1.33 112.80 L0.95 113.39 L0.63 113.96 L0.38 114.51 L0.19 115.02 L0.06 115.51 L0.00 115.97 L0.00 116.40 L0.08 116.84 L0.24 117.27 L0.49 117.70 L0.81 118.14 L1.22 118.57 L1.71 119.00 L2.28 119.44 L2.93 119.87 L3.58 120.25 L4.23 120.57 L4.88 120.85 L5.53 121.06 L6.18 121.22 L6.83 121.33 L7.48 121.39 L8.13 121.39 L8.77 121.36 L9.40 121.31 L10.03 121.22 L10.64 121.12 L11.24 120.98 L11.84 120.82 L12.43 120.63 L13.01 120.41 L13.55 120.19 L14.05 119.95 L14.52 119.71 L14.96 119.45 L15.35 119.19 L15.72 118.92 L16.04 118.64 L16.33 118.35 L16.60 118.05 L16.85 117.72 L17.09 117.38 L17.30 117.02 L17.50 116.64 L17.68 116.24 L17.85 115.82 L17.99 115.39 L18.13 114.68 L18.25 113.68 L18.37 112.41 L18.48 110.86 L18.58 109.02 L18.67 106.91 L18.75 104.52 L18.82 101.84 L18.96 99.51 L19.16 97.53 L19.42 95.88 L19.74 94.58 L20.13 93.62 L20.58 93.01 L21.10 92.74 L21.68 92.81 L22.18 93.21 L22.62 93.93 L22.98 94.98 L23.27 96.35 L23.48 98.05 L23.63 100.07 L23.70 102.42 L23.70 105.09 L23.74 107.49 L23.81 109.60 L23.92 111.43 L24.06 112.99 L24.24 114.26 L24.46 115.25 L24.71 115.97 L25.00 116.40 L25.38 116.79 L25.85 117.13 L26.41 117.43 L27.06 117.68 L27.80 117.89 L28.63 118.05 L29.55 118.17 L30.56 118.24 L31.49 118.27 L32.34 118.25 L33.11 118.19 L33.80 118.08 L34.40 117.93 L34.93 117.73 L35.37 117.49 L35.73 117.20 L36.05 116.59 L36.34 115.67 L36.60 114.43 L36.81 112.88 L36.99 111.01 L37.14 108.82 L37.25 106.32 L37.32 103.50 L37.40 101.02 L37.49 98.87 L37.59 97.06 L37.70 95.57 L37.82 94.43 L37.94 93.61 L38.08 93.14 L38.22 92.99 L38.41 92.87 L38.65 92.78 L38.93 92.72 L39.25 92.68 L39.62 92.68 L40.04 92.69 L40.50 92.74 L41.00 92.81 L41.45 93.21 L41.83 93.93 L42.14 94.98 L42.40 96.35 L42.58 98.05 L42.71 100.07 L42.77 102.42 L42.77 105.09 L42.79 107.47 L42.83 109.55 L42.88 111.33 L42.96 112.81 L43.05 113.99 L43.15 114.88 L43.28 115.46 L43.42 115.75 L43.63 116.04 L43.90 116.33 L44.24 116.62 L44.64 116.91 L45.10 117.20 L45.62 117.49 L46.21 117.77 L46.86 118.06 L47.51 118.30 L48.16 118.48 L48.81 118.61 L49.46 118.68 L50.11 118.70 L50.76 118.66 L51.41 118.57 L52.06 118.42 L52.66 118.25 L53.22 118.05 L53.74 117.83 L54.21 117.58 L54.63 117.30 L55.01 116.99 L55.35 116.65 L55.64 116.29 L55.89 115.64 L56.11 114.70 L56.29 113.48 L56.43 111.96 L56.54 110.15 L56.61 108.06 L56.65 105.67 L56.65 103.00 L56.67 100.64 L56.70 98.60 L56.76 96.88 L56.83 95.47 L56.92 94.37 L57.03 93.60 L57.15 93.14 L57.30 92.99 L57.48 92.86 L57.70 92.76 L57.95 92.67 L58.24 92.59 L58.56 92.54 L58.92 92.50 L59.32 92.49 L59.75 92.49 L60.15 92.50 L60.51 92.54 L60.84 92.59 L61.13 92.67 L61.38 92.76 L61.60 92.86 L61.78 92.99 L61.92 93.14 L62.05 93.61 L62.16 94.43 L62.25 95.57 L62.32 97.06 L62.37 98.87 L62.41 101.02 L62.43 103.50 L62.43 106.32 L62.48 108.82 L62.59 111.01 L62.75 112.88 L62.97 114.43 L63.24 115.67 L63.57 116.59 L63.95 117.20 L64.38 117.49 L64.85 117.74 L65.35 117.96 L65.90 118.14 L66.47 118.28 L67.09 118.39 L67.74 118.46 L68.42 118.50 L69.15 118.50 L69.84 118.45 L70.51 118.36 L71.15 118.23 L71.77 118.05 L72.35 117.82 L72.91 117.55 L73.45 117.23 L73.95 116.87 L74.39 116.20 L74.77 115.23 L75.09 113.95 L75.34 112.36 L75.53 110.46 L75.66 108.26 L75.72 105.74 L75.72 102.93 L75.79 100.45 L75.91 98.32 L76.10 96.53 L76.35 95.09 L76.67 93.98 L77.05 93.23 L77.49 92.81 L78.00 92.74 L78.45 92.98 L78.85 93.54 L79.19 94.42 L79.48 95.61 L79.71 97.12 L79.90 98.94 L80.02 101.08 L80.09 103.54 L80.18 105.76 L80.27 107.75 L80.36 109.50 L80.47 111.02 L80.59 112.30 L80.72 113.35 L80.85 114.16 L81.00 114.74 L81.19 115.30 L81.42 115.84 L81.70 116.37 L82.03 116.87 L82.40 117.36 L82.81 117.83 L83.27 118.28 L83.78 118.71 L84.28 119.11 L84.76 119.47 L85.24 119.80 L85.71 120.09 L86.17 120.34 L86.62 120.56 L87.07 120.74 L87.50 120.88 L88.01 120.99 L88.58 121.06 L89.23 121.10 L89.96 121.10 L90.75 121.06 L91.62 120.99 L92.56 120.88 L93.57 120.74 L94.49 120.57 L95.32 120.37 L96.06 120.14 L96.71 119.89 L97.27 119.61 L97.74 119.30 L98.12 118.97 L98.41 118.61 L98.66 118.25 L98.88 117.91 L99.06 117.58 L99.21 117.25 L99.31 116.93 L99.39 116.63 L99.42 116.33 L99.42 116.04 L99.38 115.76 L99.29 115.49 L99.15 115.23 L98.97 114.97 L98.74 114.73 L98.47 114.50 L98.16 114.27 L97.80 114.05 L97.45 113.82 L97.13 113.57 L96.82 113.29 L96.53 113.01 L96.26 112.70 L96.01 112.37 L95.77 112.03 L95.56 111.67 L95.37 110.13 L95.20 107.42 L95.07 103.54 L94.96 98.48 L94.88 92.25 L94.82 84.84 L94.80 76.26 L94.80 66.51 L94.76 57.87 L94.69 50.33 L94.58 43.91 L94.44 38.60 L94.26 34.40 L94.04 31.31 L93.79 29.34 L93.50 28.47 L93.16 27.57 L92.78 26.65 L92.36 25.70 L91.89 24.73 L91.37 23.73 L90.81 22.70 L90.21 21.64 L89.56 20.56 L88.91 19.53 L88.26 18.55 L87.61 17.63 L86.96 16.76 L86.31 15.95 L85.66 15.19 L85.01 14.49 L84.36 13.84 L83.65 13.18 L82.89 12.51 L82.08 11.83 L81.21 11.15 L80.29 10.45 L79.32 9.75 L78.29 9.03 L77.20 8.31 L76.13 7.62 L75.06 6.97 L74.01 6.36 L72.96 5.78 L71.92 5.24 L70.89 4.73 L69.87 4.26 L68.86 3.83 L67.80 3.41 L66.70 3.02 L65.55 2.64 L64.36 2.28 L63.12 1.93 L61.84 1.61 L60.51 1.30 L59.14 1.01 L57.78 0.76 L56.42 0.54 L55.08 0.36 L53.74 0.22 L52.41 0.11 L51.09 0.04 L49.78 0.00 L48.48 0.00 L47.15 0.05 L45.77 0.14 L44.36 0.27 L42.92 0.45 L41.44 0.68 L39.92 0.95 L38.37 1.26 L36.78 1.63 L35.21 2.03 L33.65 2.48 L32.12 2.98 L30.60 3.52 L29.10 4.11 L27.62 4.74 L26.16 5.42 L24.71 6.14 L23.31 6.90 L21.96 7.70 L20.65 8.53 L19.38 9.39 L18.16 10.30 L16.99 11.24 Z" fill="#fff"/>
    <circle cx="39" cy="43" r="6" fill="#0A0A0A"/><circle cx="62" cy="43" r="6" fill="#0A0A0A"/>
    <path d="M39 57 q11.5 10 23 0" stroke="#0A0A0A" stroke-width="5.5" stroke-linecap="round" fill="none"/>
  </g>
</svg>